<svg width="81" height="81" viewBox="0 0 81 81" fill="none" xmlns="http://www.w3.org/2000/svg">
<g id="&#208;&#164;&#208;&#176;&#208;&#178;&#209;&#150;&#208;&#186;&#208;&#190;&#208;&#189;">
<rect width="81" height="81" fill="white"/>
<g id="Group 9650">
<g id="Clip path group">
<mask id="mask0_570_358" style="mask-type:luminance" maskUnits="userSpaceOnUse" x="10" y="9" width="60" height="63">
<g id="58db8bcd8a">
<path id="Vector" d="M10 9H70V71.5942H10V9Z" fill="white"/>
</g>
</mask>
<g mask="url(#mask0_570_358)">
<g id="Group">
<path id="Vector_2" d="M63.2105 65.014V34.7353L40.001 16.5637L16.7916 34.7353V65.014H63.2105ZM69.8409 68.3043C69.8409 68.5196 69.8209 68.7348 69.7789 68.946C69.7348 69.1573 69.6728 69.3646 69.5887 69.5639C69.5067 69.7632 69.4046 69.9525 69.2825 70.1318C69.1625 70.3112 69.0244 70.4786 68.8703 70.6321C68.7162 70.7835 68.5501 70.921 68.3679 71.0406C68.1878 71.1602 67.9957 71.2618 67.7955 71.3436C67.5934 71.4273 67.3873 71.489 67.1731 71.5309C66.959 71.5747 66.7428 71.5947 66.5267 71.5947H13.4753C13.2592 71.5947 13.0431 71.5747 12.8289 71.5309C12.6168 71.489 12.4086 71.4273 12.2065 71.3436C12.0064 71.2618 11.8142 71.1602 11.6341 71.0406C11.454 70.921 11.2859 70.7835 11.1318 70.6321C10.9777 70.4786 10.8396 70.3112 10.7195 70.1318C10.5994 69.9525 10.4954 69.7632 10.4133 69.5639C10.3292 69.3646 10.2672 69.1573 10.2252 68.946C10.1811 68.7348 10.1611 68.5196 10.1611 68.3043V33.1389C10.1611 32.6367 10.2712 32.1584 10.4914 31.704C10.7135 31.2516 11.0217 30.869 11.42 30.5561L37.9457 9.78969C38.2378 9.5605 38.5601 9.38313 38.9123 9.26156C39.2645 9.14198 39.6288 9.0802 40.001 9.0802C40.3733 9.0802 40.7375 9.14198 41.0897 9.26156C41.442 9.38313 41.7642 9.5605 42.0564 9.78969L68.5821 30.5541C68.9803 30.865 69.2905 31.2496 69.5107 31.702C69.7328 32.1564 69.8429 32.6367 69.8409 33.1389V68.3043ZM23.424 41.9796H30.0544C30.0544 42.3025 30.0704 42.6253 30.1024 42.9462C30.1344 43.269 30.1825 43.5879 30.2445 43.9048C30.3086 44.2217 30.3886 44.5346 30.4827 44.8435C30.5767 45.1544 30.6868 45.4573 30.8109 45.7562C30.937 46.0552 31.0751 46.3481 31.2292 46.6331C31.3833 46.9181 31.5494 47.1951 31.7315 47.4642C31.9116 47.7312 32.1058 47.9923 32.3119 48.2414C32.518 48.4905 32.7382 48.7297 32.9683 48.9589C33.1985 49.1881 33.4386 49.4053 33.6908 49.6106C33.943 49.8158 34.2032 50.0072 34.4753 50.1865C34.7455 50.3659 35.0257 50.5333 35.3119 50.6848C35.6001 50.8382 35.8943 50.9757 36.1945 51.0993C36.4947 51.2229 36.8029 51.3325 37.1131 51.4261C37.4253 51.5198 37.7415 51.5975 38.0597 51.6613C38.3799 51.7251 38.7022 51.7709 39.0264 51.8028C39.3506 51.8347 39.6748 51.8506 40.001 51.8506C40.3272 51.8506 40.6515 51.8347 40.9757 51.8028C41.2999 51.7709 41.6221 51.7251 41.9423 51.6613C42.2605 51.5975 42.5767 51.5198 42.8889 51.4261C43.2012 51.3325 43.5074 51.2229 43.8076 51.0993C44.1078 50.9757 44.402 50.8382 44.6901 50.6848C44.9783 50.5333 45.2565 50.3659 45.5267 50.1865C45.7989 50.0072 46.0591 49.8158 46.3112 49.6106C46.5634 49.4053 46.8036 49.1881 47.0337 48.9589C47.2659 48.7297 47.484 48.4905 47.6901 48.2414C47.8963 47.9923 48.0904 47.7312 48.2725 47.4642C48.4527 47.1951 48.6208 46.9181 48.7729 46.6331C48.927 46.3481 49.0671 46.0552 49.1911 45.7562C49.3152 45.4573 49.4253 45.1544 49.5194 44.8435C49.6134 44.5346 49.6935 44.2217 49.7575 43.9048C49.8196 43.5879 49.8676 43.269 49.8996 42.9462C49.9316 42.6253 49.9477 42.3025 49.9477 41.9796H56.5801C56.5801 42.5177 56.5521 43.0558 56.5 43.5919C56.446 44.128 56.3659 44.6601 56.2599 45.1882C56.1538 45.7164 56.0237 46.2385 55.8656 46.7547C55.7075 47.2709 55.5254 47.7771 55.3172 48.2753C55.1091 48.7735 54.8769 49.2598 54.6208 49.7341C54.3666 50.2104 54.0864 50.6708 53.7862 51.1192C53.484 51.5676 53.1598 52.0001 52.8156 52.4166C52.4713 52.8331 52.1071 53.2317 51.7228 53.6124C51.3406 53.995 50.9383 54.3558 50.518 54.6965C50.0978 55.0393 49.6635 55.3602 49.2112 55.6591C48.7609 55.9581 48.2946 56.2351 47.8162 56.4902C47.3379 56.7433 46.8476 56.9745 46.3453 57.1797C45.8429 57.385 45.3326 57.5664 44.8142 57.7238C44.2939 57.8793 43.7675 58.0108 43.2352 58.1164C42.7028 58.2221 42.1665 58.2998 41.6261 58.3536C41.0857 58.4054 40.5434 58.4313 40.001 58.4313C39.4587 58.4313 38.9163 58.4054 38.3759 58.3536C37.8356 58.2998 37.2992 58.2221 36.7669 58.1164C36.2345 58.0108 35.7082 57.8793 35.1878 57.7238C34.6695 57.5664 34.1591 57.385 33.6568 57.1797C33.1545 56.9745 32.6661 56.7433 32.1858 56.4902C31.7075 56.2351 31.2432 55.9581 30.7909 55.6591C30.3386 55.3602 29.9043 55.0393 29.484 54.6965C29.0637 54.3558 28.6635 53.995 28.2792 53.6124C27.895 53.2317 27.5307 52.8331 27.1865 52.4166C26.8423 52.0001 26.518 51.5676 26.2178 51.1192C25.9156 50.6708 25.6374 50.2104 25.3813 49.7341C25.1251 49.2598 24.893 48.7735 24.6848 48.2753C24.4767 47.7771 24.2946 47.2709 24.1364 46.7547C23.9783 46.2385 23.8483 45.7164 23.7422 45.1882C23.6361 44.6601 23.5561 44.128 23.502 43.5919C23.45 43.0558 23.424 42.5177 23.424 41.9796Z" fill="#4D1299"/>
</g>
</g>
</g>
<g id="Clip path group_2">
<mask id="mask1_570_358" style="mask-type:luminance" maskUnits="userSpaceOnUse" x="27" y="29" width="10" height="10">
<g id="6aa91f54e5">
<path id="Vector_3" d="M27.4219 29.8356H36.3498V38.5905H27.4219V29.8356Z" fill="white"/>
</g>
</mask>
<g mask="url(#mask1_570_358)">
<g id="Group_2">
<g id="Clip path group_3">
<mask id="mask2_570_358" style="mask-type:luminance" maskUnits="userSpaceOnUse" x="27" y="29" width="10" height="10">
<g id="c31e532ed1">
<path id="Vector_4" d="M31.8858 29.8356C29.4202 29.8356 27.4229 31.8305 27.4229 34.2918C27.4229 36.7531 29.4202 38.748 31.8858 38.748C34.3495 38.748 36.3488 36.7531 36.3488 34.2918C36.3488 31.8305 34.3495 29.8356 31.8858 29.8356Z" fill="white"/>
</g>
</mask>
<g mask="url(#mask2_570_358)">
<g id="Group_3">
<path id="Vector_5" d="M27.4229 29.8356H36.1747V38.5507H27.4229V29.8356Z" fill="#D854A5"/>
</g>
</g>
</g>
</g>
</g>
</g>
</g>
</g>
</svg>
